#!OML:ASF H:\Male1\Project 1\Capture day 1\Session 1\Male1.ASF
:FULLY-SPECIFIED
:DEGREES
394
root 11.7261 14.9536 0.0350944 173.033 -70.2084 -188.202
lowerback 30.7369 3.37777 -1.44785
upperback 15.434 1.35721 -3.95391
thorax 0.751217 -0.211193 -3.95613
lowerneck -10.4693 3.41415 4.98092
upperneck 12.586 4.23798 -3.52163
head 5.70438 2.01861 -1.58174
rclavicle 1.74931e-014 1.66979e-014
rhumerus -26.7163 25.9385 -58.2263
rradius 75.05
rwrist -37.2778
rhand -21.7275 1.33106
rfingers 7.12502
rthumb 4.67186 -28.5974
lclavicle 1.74931e-014 1.66979e-014
lhumerus -1.65588 -25.5083 17.2818
lradius 69.0563
lwrist 21.1985
lhand -16.232 19.0166
lfingers 7.12502
lthumb 9.97638 48.7601
rfemur -33.2573 -21.1517 17.5298
rtibia 59.2765
rfoot -2.89062 -31.8933
rtoes 8.29951
lfemur -24.3307 24.6354 -17.8769
ltibia 54.3463
lfoot 8.21104 6.65999
ltoes -0.534345
395
root 11.6361 14.9752 0.00784415 173.592 -69.8659 -187.784
lowerback 30.3986 3.40557 -1.51912
upperback 15.1324 1.43942 -4.06859
thorax 0.553575 -0.143915 -4.05489
lowerneck -10.4846 3.49934 5.13394
upperneck 12.1491 4.30717 -3.38621
head 5.57375 2.07229 -1.55891
rclavicle -1.55052e-014 9.54166e-015
rhumerus -27.2552 25.9538 -58.6575
rradius 75.0719
rwrist -37.2127
rhand -22.039 1.31253
rfingers 7.12502
rthumb 4.37114 -28.6224
lclavicle -1.55052e-014 9.54166e-015
lhumerus -2.37915 -24.6428 17.9791
lradius 68.9641
lwrist 21.5073
lhand -17.398 19.5594
lfingers 7.12502
lthumb 8.85133 49.3538
rfemur -33.3368 -21.7153 18.4247
rtibia 58.1488
rfoot -4.25605 -31.7374
rtoes 6.70637
lfemur -24.5142 25.1376 -18.2998
ltibia 53.6976
lfoot 6.76561 6.78877
ltoes -1.27851
396
root 11.5429 14.9995 -0.0203965 174.185 -69.5443 -187.315
lowerback 29.9738 3.41684 -1.58998
upperback 14.8166 1.51256 -4.16736
thorax 0.378691 -0.0792512 -4.13073
lowerneck -10.4002 3.59005 5.27389
upperneck 11.5077 4.38903 -3.24372
head 5.36283 2.13248 -1.53345
rclavicle -2.38542e-015 -1.03368e-014
rhumerus -27.798 25.9943 -59.249
rradius 75.0038
rwrist -37.0611
rhand -22.2302 1.1879
rfingers 7.12502
rthumb 4.18651 -28.7507
lclavicle -2.38542e-015 -1.03368e-014
lhumerus -3.10326 -23.8615 18.9514
lradius 68.8121
lwrist 21.7171
lhand -18.5435 20.0503
lfingers 7.12502
lthumb 7.74574 49.8885
rfemur -33.4553 -22.3282 19.4414
rtibia 56.9424
rfoot -5.83049 -31.5884
rtoes 5.25277
lfemur -24.7308 25.4978 -18.6986
ltibia 52.978
lfoot 5.27692 6.95102
ltoes -1.72689
397
root 11.4463 15.0264 -0.04954 174.747 -69.2421 -186.745
lowerback 29.472 3.40874 -1.63969
upperback 14.4906 1.57775 -4.23739
thorax 0.2282 -0.0163269 -4.18168
lowerneck -10.2195 3.68203 5.38236
upperneck 10.6694 4.48053 -3.08699
head 5.07467 2.19637 -1.50113
rclavicle -3.10104e-014 -3.49861e-014
rhumerus -28.3458 26.0583 -59.9782
rradius 74.8331
rwrist -36.8014
rhand -22.2852 0.995057
rfingers 7.12502
rthumb 4.13335 -28.9446
lclavicle -3.10104e-014 -3.49861e-014
lhumerus -3.84794 -23.1751 20.2061
lradius 68.6075
lwrist 21.8273
lhand -19.7113 20.4845
lfingers 7.12502
lthumb 6.61849 50.3611
rfemur -33.5767 -22.9556 20.558
rtibia 55.6477
rfoot -7.4944 -31.4113
rtoes 4.12904
lfemur -24.9139 25.68 -19.0245
ltibia 52.1487
lfoot 3.7014 7.09188
ltoes -2.09902
398
root 11.3464 15.0551 -0.0794777 175.518 -68.9844 -186.329
lowerback 28.892 3.38824 -1.73803
upperback 14.1527 1.62508 -4.29614
thorax 0.0990306 0.0366395 -4.18433
lowerneck -9.97104 3.77342 5.46258
upperneck 9.68702 4.57889 -2.92265
head 4.73137 2.26113 -1.46485
rclavicle 7.95139e-015 3.65764e-014
rhumerus -28.8978 26.1446 -60.8256
rradius 74.5455
rwrist -36.4314
rhand -22.2164 0.77642
rfingers 7.12502
rthumb 4.19983 -29.1619
lclavicle 7.95139e-015 3.65764e-014
lhumerus -4.62187 -22.596 21.7389
lradius 68.351
lwrist 21.8326
lhand -20.7889 20.8103
lfingers 7.12502
lthumb 5.57821 50.7169
rfemur -33.7168 -23.5953 21.6359
rtibia 54.2772
rfoot -8.97287 -31.1573
rtoes 3.00511
lfemur -25.0483 25.6585 -19.383
ltibia 51.1903
lfoot 2.03138 7.191
ltoes -2.90937
